<svg width="60" height="54" viewBox="0 0 60 54" fill="none" xmlns="http://www.w3.org/2000/svg">
<path fill-rule="evenodd" clip-rule="evenodd" d="M16.7324 33.0266C15.9684 33.501 15.0715 33.8656 14.1393 33.8656C12.2636 33.8656 11.2366 32.3815 10.7314 31.2665C10.4548 30.656 10.2372 29.9596 10.065 29.2219C9.09623 30.6192 7.99332 31.6791 6.90615 32.4427C4.74195 33.9628 1.65809 33.1414 0.752455 30.4967C-0.0548841 28.1391 -0.106079 25.2538 0.108007 22.6863C0.258661 20.8796 0.549965 19.1304 0.868891 17.6696C1.08124 16.6969 2.07705 16.1346 3.03708 16.4001C3.99711 16.6656 4.55809 17.6586 4.35133 18.6325C4.08009 19.9101 3.8327 21.4274 3.70276 22.9858C3.50284 25.3833 3.59938 27.6766 4.16532 29.3293C4.21882 29.4855 4.3111 29.5531 4.40715 29.5823C4.51115 29.6139 4.66453 29.6107 4.83211 29.493C6.60647 28.2468 8.88496 25.5197 9.40277 20.3803C9.40821 20.1348 9.41507 19.8939 9.42315 19.6586C9.45769 18.6536 10.3101 17.8841 11.3157 17.915C12.3214 17.9459 13.1308 18.767 13.0697 19.7708C13.0529 20.0477 13.0317 20.32 13.0064 20.5877C12.9684 22.5019 13.0232 24.6729 13.2596 26.5586C13.436 27.9658 13.6975 29.0732 14.0174 29.7792C14.1252 30.0171 14.2117 30.1555 14.2704 30.2326C14.2864 30.2279 14.304 30.2222 14.3231 30.2157C14.4499 30.172 14.6201 30.0938 14.8286 29.9644C15.2485 29.7036 15.7579 29.2752 16.2976 28.6527C17.3743 27.4107 18.4776 25.5033 19.1862 22.9764C20.5113 18.2509 20.4576 11.3329 16.187 2.67638C15.7465 1.78346 16.0686 0.689954 16.9449 0.216566C17.8212 -0.256822 18.9199 0.0699705 19.3628 0.961738C24.036 10.3725 24.2598 18.2429 22.6596 23.9494C21.82 26.9431 20.4784 29.3356 19.0238 31.0135C18.2979 31.8509 17.52 32.5375 16.7324 33.0266ZM14.3558 30.32C14.3558 30.32 14.3456 30.3167 14.3272 30.2987C14.3469 30.3092 14.3558 30.32 14.3558 30.32Z" fill="#2B252C"/>
<path fill-rule="evenodd" clip-rule="evenodd" d="M28.2553 28.9157C29.5763 28.5898 30.8382 27.4289 31.9373 25.6656C32.8205 24.2487 33.4608 22.6578 33.8468 21.396C33.5275 21.1322 33.2636 21.01 33.0679 20.9558C32.7804 20.8761 32.4759 20.8963 32.0986 21.0715C31.2341 21.4729 30.2246 22.5961 29.4092 24.2122C28.6103 25.7956 28.1994 27.455 28.2227 28.527C28.2263 28.6926 28.2396 28.82 28.2553 28.9157ZM33.0331 30.0912C31.8765 31.2506 30.4438 32.187 28.7069 32.5044C27.5154 32.7222 26.3226 32.4174 25.5128 31.4272C24.822 30.5824 24.6357 29.4998 24.6163 28.6053C24.5763 26.7669 25.2162 24.5156 26.1884 22.5889C27.144 20.6948 28.6258 18.7086 30.5788 17.8018C31.6102 17.3229 32.796 17.1394 34.0312 17.4814C35.06 17.7664 35.9873 18.3781 36.8142 19.242C37.1094 19.5503 37.3144 19.9312 37.4518 20.3353C37.5892 20.7394 37.6524 21.164 37.631 21.5903C37.4269 25.6659 36.719 31.3862 35.219 36.8911C37.23 37.1947 39.2324 37.939 40.9705 39.5419C41.7026 40.217 41.5655 41.3661 40.7873 41.9876C40.0091 42.6091 38.889 42.4554 38.103 41.8438C36.9264 40.9282 35.5766 40.4826 34.132 40.4132C33.2207 43.0282 32.0892 45.5361 30.6895 47.6917C29.0119 50.2754 26.8776 52.4612 24.1698 53.6328C23.3553 53.9852 22.2949 54.1661 21.2257 53.7954C20.2781 53.4669 19.1505 52.7976 18.4217 51.5735C17.6674 50.3067 17.498 48.7123 18.007 46.8746C18.4558 45.254 19.8175 43.5504 21.404 42.1116C23.0509 40.6181 25.1825 39.1899 27.5119 38.1925C28.7413 37.6661 30.0703 37.2467 31.4358 37.0121C32.1094 34.7268 32.6344 32.3665 33.0331 30.0912ZM30.0288 41.082C29.6643 41.2078 29.2985 41.3497 28.9324 41.5065C26.9933 42.3367 25.1971 43.5399 23.8279 44.7816C22.3984 46.0781 21.6559 47.2136 21.4835 47.8363C21.1782 48.9385 21.3725 49.4796 21.5215 49.7297C21.6959 50.0226 22.0112 50.2518 22.4079 50.3893C22.4079 50.3893 22.432 50.3977 22.4882 50.393C22.5478 50.3879 22.6334 50.369 22.7367 50.3243C24.5724 49.5301 26.2174 47.9565 27.6637 45.7291C28.5517 44.3614 29.3381 42.7877 30.0288 41.082Z" fill="#2B252C"/>
<path fill-rule="evenodd" clip-rule="evenodd" d="M44.8746 19.3083C46.3846 16.4163 47.8969 13.669 49.0807 11.5794C49.5715 10.713 50.675 10.4192 51.5372 10.9179C52.3993 11.4165 52.694 12.518 52.2034 13.3845C50.6409 16.1438 48.5474 19.9791 46.6594 23.7307C48.5514 27.8424 50.9741 31.505 53.8867 33.6932C54.683 34.2914 55.0168 35.3789 54.5432 36.2547C54.0695 37.1305 52.9688 37.4633 52.1538 36.8908C49.0455 34.7075 46.5824 31.3674 44.673 27.8287C44.0746 29.1216 43.5408 30.3453 43.1075 31.4426C42.7419 32.3687 41.7214 32.8818 40.7756 32.5694C39.8298 32.2569 39.3163 31.2374 39.6784 30.31C40.444 28.3492 41.5054 26.0299 42.6789 23.6372C41.0711 19.8077 39.9735 15.9562 39.3404 12.9914C39.1325 12.0178 39.7939 11.0862 40.7756 10.9179C41.7574 10.7495 42.688 11.4087 42.8988 12.3817C43.3292 14.3678 43.9838 16.7847 44.8746 19.3083Z" fill="#2B252C"/>
<path d="M60 39.0973C60 40.0928 59.1925 40.8999 58.1964 40.8999C57.2003 40.8999 56.3928 40.0928 56.3928 39.0973C56.3928 38.1017 57.2003 37.2946 58.1964 37.2946C59.1925 37.2946 60 38.1017 60 39.0973Z" fill="#2B252C"/>
</svg>
